<svg xmlns="http://www.w3.org/2000/svg" version="1.1" xmlns:xlink="http://www.w3.org/1999/xlink" xmlns:svgjs="http://svgjs.dev/svgjs" width="128" height="128" viewBox="0 0 128 128"><g transform="matrix(0.44782608695652176,0,0,0.44782608695652176,35.33913043478261,12.5)"><svg viewBox="0 0 125 225" data-background-color="#ffffff" preserveAspectRatio="xMidYMid meet" height="230" width="128" xmlns="http://www.w3.org/2000/svg" xmlns:xlink="http://www.w3.org/1999/xlink"><g id="tight-bounds" transform="matrix(1,0,0,1,-1.4210854715202004e-14,0)"><svg viewBox="0 0 125 225" height="225" width="125"><g><svg></svg></g><g><svg viewBox="0 0 125 225" height="225" width="125"><g><path d="M33.402 55.033c0-0.436 0.218-0.872 0.654-0.872 0.436 0 0.872 0.218 0.872 0.872 0.218 0 0.654 0 0.873-0.218 0.872 0 1.745-0.218 2.399 0 0.654 0.218 1.09 0.218 1.744 0.436 0.654 0.218 1.09 0 1.527-0.218 0.872-0.218 1.527-0.654 2.399-0.872 0.436-0.218 0.654-0.218 1.091-0.218 0.436-0.218 0.872-0.218 1.526-0.437 1.09-0.218 2.181-0.436 3.053-0.872 0.872-0.436 1.745-0.436 2.618-0.654 0.436 0 0.654-0.218 1.09-0.436 0.218 0 0.218-0.218 0.436-0.437 0.436-0.218 0.654-0.436 1.091-0.218 0.218 0.218 0.654 0.218 0.872 0h0.218c1.309 0 2.617-0.218 4.144 0 0.218 0 0.436 0 0.436 0 0.654-0.436 1.527-0.436 2.399-0.436 0.218 0 0.654 0 0.872 0h0.218c0.872 0 1.745 0 2.399 0.218 0.654 0 1.09 0.218 1.745 0.436 0.654 0 1.09 0 1.745 0.218 0.436 0 0.872 0 1.308 0 0.218 0 0.436 0 0.437 0 0.872 0.218 1.745 0.218 2.617 0.219 0.654 0.218 1.309 0.436 2.181 0.436 0.218 0 0.436 0 0.654 0 0.218 0 0.436 0.218 0.654 0.218l0.218 0.218c0.872 0 1.527 0.436 2.399 0.436 0.218 0 0.654 0 0.873 0.218 0.654 0.436 1.527 0.654 2.399 0.654 0.436 0 0.654 0.218 0.872 0.437 0.654 0.218 1.09 0.436 1.745 0.654 0.436 0.218 0.872 0 1.308 0.218 0.654 0.218 1.527 0.436 2.181 1.09 0.436 0.436 0.872 0.436 1.527 0.873 0.218 0 0.436 0.218 0.654 0.436 0.654 0.436 1.309 0.872 1.963 1.09 0.218 0 0.436 0.218 0.654 0.219 0.654 0.436 1.309 1.09 2.181 1.526 0.436 0.218 0.654 0.436 1.091 0.654h0.218c0.654 0.654 1.527 1.09 2.181 1.745 0.654 0.654 1.09 1.09 1.962 1.527 0 0 0 0 0 0.218 0.218 0.436 0.436 0.654 0.873 0.872 0.436 0.218 0.654 0.436 0.872 0.655 0.654 0.436 1.309 0.872 1.745 1.308 0.218 0.218 0.436 0.436 0.872 0.872 0.218 0.218 0.436 0.436 0.654 0.437 0.872 0.218 1.309 0.872 1.963 1.526 0.436 0.436 1.09 1.09 1.527 1.527 0.218 0.218 0.436 0.654 0.654 1.09 0.436 1.309 1.09 2.617 1.745 3.708 0 0 0 0.218 0.218 0.436v0.218c0.436 0.436 0.654 1.09 1.09 1.527 0.218 0.218 0.218 0.436 0.437 0.654 0.436 0.654 0.654 1.527 1.09 2.181 0.654 1.09 1.09 2.181 1.527 3.271v0.218c0.218 0.436 0.436 0.872 0.654 1.527 0 0.436 0.436 0.872 0.654 1.527 0.218 1.09 0.872 2.181 1.091 3.489 0 0.218 0.218 0.436 0.218 0.873 0.218 0.654 0.436 1.309 0.654 1.962 0 0.218 0.218 0.436 0.436 0.655 0.436 0.436 0.436 0.872 0.436 1.308-0.218 0.872 0 1.745 0.219 2.617 0 0.218 0 0.436 0 0.873 0.218 0.872 0.436 1.963 0.436 2.835 0 0.218 0 0.654 0 0.872 0 0.654 0.218 1.309 0.654 1.963 0 0.218 0.218 0.218 0.218 0.218 0.218 0.218 0.436 0.654 0.654 0.872 0.218 0.218 0.218 0.218 0.437 0.437 0.436 0.436 0.654 0.872 0.654 1.526 0 0.218-0.218 0.654-0.218 0.873 0 0.218 0 0.654 0.218 0.872 0.218 0.218 0.218 0.436 0.218 0.654 0 0.218-0.218 0.436-0.436 0.436v0c-0.218 0.654-1.09 0.872-1.309 1.527-0.218 0.872-0.436 1.745-0.654 2.617-0.218 0.654-0.218 1.09-0.218 1.745 0 0.654-0.218 1.09-0.218 1.745-0.218 0.872-0.436 1.745-0.655 2.617 0 0.436-0.218 0.872-0.218 1.308 0.218 0.218 0.436 0.436 0.655 0.436 0.436 0.436 0.872 0.872 1.308 1.309 0.218 0.218 0.218 0.436 0 0.436-0.218 0.218-0.436 0.218-0.654 0.218-0.218-0.218-0.654-0.436-0.872-0.436-0.218-0.218-0.654-0.436-1.091-0.218 0 0.436-0.218 0.872-0.218 1.09-0.218 0.436-0.436 1.09-0.436 1.527-0.218 0.872-0.654 1.527-0.873 2.399-0.436 1.09-0.872 1.963-1.308 2.835-0.218 0.436-0.436 0.872-0.654 1.309v0c0 0.654-0.654 1.309-0.873 1.963-0.436 0.872-0.872 1.745-1.308 2.835-0.218 0.436-0.436 0.872-0.655 1.09-0.436 1.09-0.872 1.963-1.526 2.836-0.436 0.654-0.872 1.09-1.309 1.308-0.436 0.436-0.872 0.872-1.308 1.309-0.218 0.218-0.436 0.436-0.655 0.654-0.218 0.218-0.218 0.218-0.436 0.436-0.436 0.654-1.09 1.09-1.526 1.745-0.436 0.436-0.654 0.872-1.309 1.308-0.436 0.436-0.872 1.09-1.527 1.309-0.218 0.218-0.436 0.654-0.654 0.872-0.218 0.218-0.436 0.654-0.654 0.873 0 0.436 0.218 0.872 0.218 1.09 0 0.654-0.654 0.872-1.09 0.436-0.654-0.436-0.654-0.436-1.309 0-0.654 0.436-1.309 1.09-2.181 1.309-0.218 0-0.218 0.218-0.436 0.218-0.436 0.218-0.654 0.654-1.091 0.872-0.436 0.436-1.09 0.654-1.526 1.091-0.218 0.218-0.436 0.218-0.655 0.436-0.654 0.436-1.309 0.654-1.962 1.308-0.218 0.218-0.436 0.218-0.655 0.437 0 0.218 0 0.218 0 0.436 0 0.436-0.436 0.872-1.09 0.654-0.654-0.218-1.09 0-1.745 0-0.654 0.218-1.309 0.654-1.963 0.872-0.218 0-0.436 0.218-0.654 0.437-0.654 0.436-1.309 0.654-1.963 0.872-0.436 0-0.872 0.436-1.308 0.436-0.218 0-0.436 0.218-0.655 0.218h-0.218c-0.872 0.654-1.745 1.09-2.617 1.745-0.218 0-0.218 0.218-0.436 0.436-0.218 0.436-0.436 0.654-0.872 0.654-1.09 0-1.527 0.872-1.309 1.745 0 0.218 0.218 0.436 0.218 0.654 0.218 0.436 0 0.872-0.218 1.091-0.218 0.218-0.872 0.218-1.09-0.218-0.436-0.436-0.654-0.872-0.873-1.527-0.218-0.436-0.654-0.872-1.09-1.09-0.436-0.218-0.872-0.218-1.309 0-0.218 0-0.218 0.218-0.436 0.218-0.436 0.436-1.09 0.654-1.745 0.436-0.218 0-0.654 0-0.654 0.218-0.218 0.218-0.218 0.654 0 0.872 0.436 0.436 0.218 0.872 0.218 1.527 0 0.872-0.654 1.309-1.526 0.872-0.218-0.218-0.436-0.218-0.655-0.436-0.218 0-0.218-0.218-0.218-0.436-0.218-0.218-0.218-0.654-0.436-1.09-0.436 0.218-0.872 0.218-1.308 0.436-0.218 0-0.436 0.218-0.655 0.218-0.654 0-0.872 0-1.09-0.654-0.218-0.654-0.654-0.654-1.091-0.873-0.872-0.218-1.963-0.218-2.835-0.654h-0.218c-0.872-0.654-1.745-0.654-2.835-0.654-0.654 0-1.309 0.218-1.963 0.218-0.654 0-1.09 0.218-1.527 0.654-0.218 0.218-0.436 0.436-0.654 0.436-0.218-0.218-0.218-0.436-0.436-0.654v-0.218c0-0.218-0.218-0.436-0.436-0.218-0.436 0.218-0.872-0.218-1.309-0.436-0.218-0.218-0.654-0.654-0.654-1.091-0.218-0.218-0.436-0.436-0.654-0.436-0.436 0-1.09-0.218-1.527-0.218-0.218 0-0.436 0-0.436-0.218-0.218-0.218-0.436-0.218-0.872-0.218-0.218 0-0.218-0.218-0.437-0.218 0.436 0.436 0.654 0.872 0.873 1.308 0 0.218 0.218 0.218 0.218 0.436 0.218 0.436 0 0.654-0.654 0.655-0.436 0-0.436 0-0.655 0.218 0 0.436 0 0.654 0 1.09 0 0.218 0 0.436-0.436 0.654 0 0-0.218 0-0.218 0.219-0.218 0.218-0.218 0.436 0 0.654 0.654 0.436 1.09 0.654 1.745 0.872 0.654 0 0.654 0.436 0.872 0.872 0.218 0.436 0 0.654-0.218 1.091-0.436 0.436-0.872 0.872-1.309 1.309-0.654 0.218-1.09 0.872-1.744 0.872-0.436 0-0.872-0.218-1.091-0.654-0.218-1.09-0.218-1.963 0.218-3.054 0-0.218 0.218-0.436 0-0.654-1.963 0-1.963-0.436-1.962-0.654 0-0.436 0.218-0.654 0.218-1.091 0.218-0.436 0-0.654-0.655-0.872-0.218 0-0.436 0-0.654 0-0.218 0-0.218-0.218-0.654-0.218 0.436-0.218 0.654-0.218 1.09-0.436-0.218-0.872-0.436-1.527-1.09-1.963-0.218-0.218-0.436-0.436-0.436-0.872 0-0.654-0.436-1.09-0.655-1.527-0.436-0.654-1.309-0.872-1.962-0.872-0.654-0.218-1.09-0.218-1.745-0.437-0.654-0.218-1.309-0.872-1.963-1.09-0.218-0.218-0.436-0.436-0.872-0.654-0.872-0.436-1.527-1.09-2.181-1.745-0.436-0.218-0.654-0.654-1.091-0.872-0.436-0.436-0.654-0.872-1.09-1.091-0.436-0.436-0.872-0.872-1.527-1.309-0.654-0.436-1.09-1.09-1.745-1.744-0.436-0.654-1.09-1.09-1.744-1.527-0.218 0-0.436 0-0.655 0-0.218 0-0.436 0.218-0.654 0.218-0.654 0.218-1.09 0.654-1.745 0.873 0.218-0.218 0.218-0.218 0-0.655-0.218-0.218-0.436-0.436-0.654-0.436-0.436 0-0.872 0-1.308 0-0.872 0-1.745 0.218-2.617 0.218-0.654 0-1.527 0.218-2.181 0.436 0.218 0.436 0.218 0.654 0.436 1.091-0.436 0.218-0.872 0.218-1.309 0.218-0.218 0-0.654 0.218-0.872 0.436-0.218 0-0.218 0.218-0.436 0-0.436-0.218-0.872 0-1.309 0.218h-0.218c0 0 0-0.218 0.218-0.218 0.218-0.218 0.436-0.436 0.654-0.654 0.218-0.218 0.436-0.218 0.873-0.436-0.218-0.218-0.218-0.436-0.218-0.437-0.218-0.218-0.436-0.218-0.655 0-0.218 0.218-0.436 0.436-0.654 0.655-0.218 0.218-0.436 0.218-0.654 0-0.218-0.218-0.218-0.436 0-0.655 0-0.218 0.218-0.436 0.436-0.654 0.218-0.218 0.218-0.436 0.436-0.654-0.436-0.436-0.654-0.872-1.09-1.091-0.654-0.436-1.309-1.09-1.745-1.744-0.436-0.872-1.09-1.527-1.963-1.963-0.218-0.218-0.436-0.436-0.654-0.654-0.218-0.218-0.218-0.218-0.436-0.437-0.654 0.218-1.09 0.654-1.745 0.873-0.218 0-0.218 0.218-0.436 0.436-0.218 0.436-0.654 0.436-1.091 0.436-0.218 0-0.436-0.218-0.218-0.436 0.218-0.436 0.436-0.872 1.091-0.654 0 0 0.218 0 0.218-0.218 0.436-0.436 0.872-1.09 1.527-1.527-0.218-0.654-0.654-1.09-0.873-1.527-0.218-0.218-0.218-0.436-0.218-0.872 0-0.218 0-0.218-0.218-0.436 0 0-0.218 0-0.436 0.218-0.218 0.218-0.654 0.436-1.091 0 0-0.218 0-0.436 0.218-0.654l0.219-0.218c0.654-0.218 0.654-0.872 0.654-1.527v-0.218c-0.218-0.436-0.218-0.654 0.218-1.091 0.654-0.436 1.309-1.309 1.527-1.962 0.218-0.436 0.654-0.654 1.09-1.091 0.436-0.436 0.872-0.872 1.09-1.527h0.219c0.872 0.218 1.09-0.436 1.526-1.09 0-0.218 0-0.436 0.218-0.436 0.436-0.436 0.436-0.872 0.218-1.527 0-0.218-0.218-0.654-0.218-0.872 0-0.218 0-0.218-0.218-0.436-0.654-0.436-0.654-0.872 0-1.309 0.436-0.218 0.436-0.654 0.654-0.872 0.218-0.436 0.218-0.872 0.219-1.527-0.218-0.654-0.218-1.527-0.437-2.181-0.218-0.872-0.436-1.963-0.654-2.835 0-0.218 0-0.218 0-0.436 0-0.654 0-1.09-0.218-1.745-0.218-0.218-0.218-0.654-0.218-0.872-0.218-0.654-0.436-1.09-1.091-1.309-0.654-0.436-1.527-0.654-2.18-1.09-0.218-0.218-0.436 0-0.655 0.218-0.218 0.436-0.654 0.872-0.872 1.308-0.218 0.218-0.436 0.654-0.654 1.091-0.436 0.436-1.309 0.872-1.963 0.218-0.218-0.436-0.436-0.654 0-1.091 0.436-0.654 0.872-1.309 1.526-1.744 0.218-0.218 0.436-0.654 0.655-0.873 0.218-0.436 0.218-0.872 0.218-1.308-0.218-0.872-0.436-1.745-0.436-2.835 0-1.09 0-1.963 0.218-3.054 0.218-0.436 0.218-1.09 0.436-1.526 0-0.218 0.218-0.654 0.436-0.873 0.436-0.436 0.872-0.872 1.091-1.526 0.218-0.654 0.654-1.309 0.654-1.963 0-0.218 0.218-0.436 0.218-0.654 0-0.218 0.218-0.654 0.218-0.873-0.218-0.654 0-1.09 0.218-1.526 0.218-0.436 0.436-1.09 0.654-1.527 0.436-0.872 0.436-1.963 1.309-2.835 0.218-0.436 0.436-0.872 0.654-1.309 0.218-0.872 0.654-1.527 1.091-2.181 0.218-0.218 0.218-0.218 0.218-0.436 0.218-0.654 0.654-1.309 1.09-1.963 0.436-0.654 0.436-1.309 0.654-1.962 0-0.218 0-0.436 0.219-0.655 0.654-0.654 0.436-1.527 0.218-2.399-0.436-1.09-0.654-2.181-0.437-3.271 0-0.218 0-0.436 0.219-0.436 0.218-0.436 0.218-0.654 0.436-1.091v-0.218c0.436-0.436 0.872-1.09 1.526-1.308 0.872-0.436 1.745-0.654 2.836-0.873 0.872 0 1.745-0.436 2.399-1.308 0-0.218 0.218-0.218 0.436-0.437l0.218-0.218c0.218-0.436 0.436-0.654 0.654-0.872 0.436-0.436 0.872-1.09 1.309-1.527 0.436-0.436 0.872-1.09 1.526-1.744l0.218-0.218c0.436-0.436 0.872-0.872 1.309-1.091 0.436-0.436 0.872-0.872 1.308-1.308 0.436-0.436 0.654-0.872 1.091-1.309 0.436-0.218 0.872-0.654 1.308-1.09 0.436-0.436 0.872-0.872 1.091-1.091 0.436-0.436 1.09-0.872 1.527-1.09 0.436-0.218 0.872-0.436 1.09-1.091 0.218-0.654 0.436-1.09 0.654-1.745 0-0.436 0.218-0.872 0.436-1.308 0.218 0 0.436 0 0.873-0.218-0.218-0.218-0.436-0.218-0.436-0.436 0-0.218 0.218-0.436 0.218-0.437 0-0.218 0.218-0.436 0.218-0.654 0 0 0.218 0 0.218-0.218 0 0 0.218 0 0.218-0.218-0.436 0.218-0.654 0-0.872-0.218 0.218 0.218 0.436 0.218 0.872 0.436 0 0 0.218 0 0.218-0.218 0-0.218 0-0.436 0-0.436 0 0-0.218 0-0.436 0-0.218 0-0.436 0.218-0.654 0.218zM71.131 157.536c0-0.218-0.218-0.218-0.218-0.436-0.218-0.436 0-0.654 0.218-0.873 0.218-0.218 0.436-0.218 0.873-0.218 0.436 0.218 0.654 0.436 0.654 0.873 0 0.218 0 0.654 0 0.872 0.218 0.872 0.218 0.872 1.091 0.872 0.436 0 0.872 0 1.308 0 0.872-0.218 1.745-0.654 2.617-0.872 0.872-0.218 1.745-0.436 2.617-0.654 0.218 0 0.436 0 0.873 0 0.872 0.218 1.527 0 2.181-0.437 0.218-0.218 0.654-0.218 0.872-0.436 0.436-0.218 0.872-0.218 1.308-0.436 1.09-0.654 2.181-1.09 3.054-1.745 0.654-0.436 1.309-0.872 1.963-1.308 0.654-0.436 1.309-0.872 1.962-1.309 0.436-0.218 1.09-0.654 1.527-1.09 0.872-0.654 1.527-1.309 2.399-1.745 0.436-0.218 0.654-0.436 0.872-0.654 0.436-0.218 0.654-0.654 1.091-0.873 0.218-0.218 0.436-0.436 0.872-0.654 0.218-0.218 0.218-0.218 0.218-0.436 0.654-0.436 1.309-1.309 1.745-1.963 0.436-0.436 0.872-0.872 1.309-1.526 0.654-0.654 1.09-1.527 1.744-2.399 0.436-0.436 0.872-1.09 1.091-1.527 0.436-0.872 0.872-1.745 1.526-2.399v-0.218c0.436-0.872 0.872-1.745 1.309-2.617 0.654-1.09 1.09-2.399 1.745-3.49 0.218-0.436 0.436-0.872 0.436-1.308 0.436-0.872 0.654-1.745 0.872-2.617 0-0.218 0-0.218 0.218-0.437 0.654-1.309 1.09-2.617 1.309-4.143 0.218-0.872 0.436-1.745 0.654-2.617 0.436-1.309 0.436-2.399 0.654-3.708 0.218-0.872 0.218-1.963 0.218-2.835 0.218-1.309 0.218-2.835 0-4.144 0-1.09-0.218-2.399-0.218-3.489 0-1.09-0.218-1.963-0.436-3.054-0.218-1.09-0.436-1.963-0.654-3.053-0.436-0.872-0.654-1.745-0.872-2.835-0.218-0.872-0.654-1.527-0.655-2.399 0-0.654-0.218-1.309-0.872-1.527-0.654-0.218-1.09-0.436-1.745-0.872-1.309-0.872-1.963-1.963-1.744-3.271 0-0.654 0.218-1.527 0.436-2.181 0.218-0.654 0.436-1.309 0-1.745-0.218-0.654-0.654-1.09-0.873-1.527-0.436-0.654-0.654-1.09-1.09-1.526-0.436-0.872-0.872-1.745-1.527-2.399-0.872-1.09-1.527-2.181-2.617-3.054l-0.218-0.218c-0.654-0.872-1.309-1.745-2.181-2.399-0.436-0.436-0.872-0.872-1.308-1.09-0.218-0.218-0.436-0.436-0.873-0.654-0.654-0.436-1.309-0.654-1.745-1.091-0.654-0.654-1.527-1.09-2.18-1.527 0 0-0.218 0-0.219-0.218-0.872-0.436-1.527-0.654-2.399-1.09-0.872-0.436-1.745-0.654-2.617-0.654-0.218 0-0.218 0-0.436 0-0.218-0.218-0.654-0.218-0.872-0.218-0.218 0-0.218 0-0.436 0-0.436-0.218-1.09 0-1.527 0-0.872 0.218-1.745 0.218-2.617-0.219-1.09-0.436-1.963-0.872-2.835-1.308-0.654-0.436-1.09-0.872-1.745-1.309-1.309-1.09-2.617-2.399-4.144-3.489 0.218-1.09-0.218-1.309-1.09-1.309-0.436 0-0.872 0.218-1.309 0.437-0.218 0.218-0.218 0.218-0.436 0.436-0.654 0.436-1.09 1.09-1.745 1.526-1.09 0.654-1.527 0.436-2.399 0-0.218-0.218-0.436-0.436-0.654-0.654-0.436-0.436-0.872-1.09-1.09-1.527-0.436-0.872-1.309-0.872-2.181-0.872-0.436 0-1.09 0.218-1.527 0.218-0.872 0-1.745 0.436-2.181 1.091-0.436 0.654-0.872 1.309-1.526 1.962-0.218 0.218-0.654 0.436-0.873 0.873-0.436 0.436-0.872 0.436-1.308 0-0.218-0.218-0.436-0.218-0.655-0.436-0.218 0.218-0.436 0.436-0.436 0.654-0.218 0.436-0.436 0.872-0.654 1.527-0.218 0.654-0.654 1.309-1.091 1.744-0.218 0.218-0.218 0.218-0.436 0.436-0.218 0.436-0.872 0.654-1.308 0.655-0.436 0.436-0.872 1.09-1.091 1.526-0.218 0.436-0.436 0.872-0.654 1.527-0.218 0.218-0.218 0.654-0.436 0.872-0.218 0.436-0.218 0.654-0.218 1.091 0.218 0.654-0.218 0.872-0.873 1.09-0.436 0-0.436 0-0.654 0.436 0 0.654 0.218 1.09 0.436 1.745 0.218 0.218 0.436 0.654 0.436 0.873 0 0.436 0.218 0.654 0.655 0.872 0.218 0.218 0.436 0.436 0.654 0.436 0.218 0 0.218 0.218 0.436 0.218 0.218 0.218 0.436 0 0.436-0.218 0.218-0.654 0.436-1.309 0.437-1.963 0.218-0.872 0.218-1.527 0.436-2.399 0.218-0.436 0.436-0.654 0.654-0.872 0 0 0.218 0 0.436 0v0.218c-0.218 1.09-0.654 2.399-0.872 3.489-0.218 0.436-0.218 0.872-0.436 1.309 0 0.218-0.218 0.436-0.437 0.436-0.436 0.218-0.872 0.436-1.308 0.436-0.218 0-0.436 0-0.654 0-0.436-0.218-0.872-0.654-1.309-0.872-0.218-0.218-0.436-0.436-0.654-0.654-0.218-0.436-0.436-0.872-0.654-1.309-0.218-0.436-0.436-0.654-0.873-0.872-0.218-0.218-0.436-0.218-0.654-0.436-0.436-0.436-0.872-0.654-1.527-0.655-0.218 0-0.654 0-0.872 0-0.218 0-0.654 0.218-0.872 0.437-0.436 0.218-0.654 0.218-1.091 0-1.09-0.436-2.181-0.218-3.271 0.218-0.436 0.218-0.872 0.436-1.309 0.436-1.09 0-1.963 0-3.053 0-1.09 0-1.963-0.218-3.053-0.436-0.436 0-0.872 0-1.309 0-0.872 0.218-1.09 0.872-0.872 1.744 0.218 0.872 0.436 1.963 0.436 2.836 0 0.654 0 1.309 0 1.962 0 0.436 0 0.654 0 1.091 0 0.654-0.218 1.309-0.218 1.963-0.218 1.309-0.872 2.399-1.745 3.271-0.654 0.654-1.527 1.309-2.399 1.527-0.436 0.218-0.872 0.436-1.527 0.654-1.09 0.436-1.963 1.309-2.617 2.399-0.218 0.436-0.436 0.872-0.654 1.309-0.436 0.654-0.654 1.09-1.09 1.744-0.218 0.436-0.654 0.872-0.873 1.309-0.218 0.436-0.654 0.654-0.654 1.09-0.436 0.872-0.654 1.745-1.09 2.617-0.218 0.436-0.218 1.09-0.437 1.527-0.436 0.872-0.436 1.745-0.436 2.835 0 0.218 0 0.436 0 0.873 0 1.09-0.218 2.399-0.218 3.489 0 1.09 0 2.181 0.218 3.271 0 0.436 0 1.09 0 1.527 0 0.872 0.218 1.963 0.218 2.835 0 0.872 0 1.963 0.436 2.835v0.218c0.218 0.872 0.218 1.745 0.437 2.618 0 0.218 0 0.436 0.218 0.654 0.436 1.309 0.654 2.399 1.09 3.707 0.218 0.872 0.654 1.745 0.873 2.617 0.218 0.872 1.09 1.745 1.308 2.836v0c0.654 1.309 1.309 2.617 2.181 3.925 0.218 0.436 0.654 0.872 0.872 1.309 0.436 0.654 0.654 1.309 1.091 1.745 0.218 0.436 0.654 0.872 0.872 1.09 0.218 0.436 0.436 0.872 0.873 1.309 0.436 0.436 0.872 1.09 1.308 1.526 0.654 1.09 1.527 1.963 2.399 2.617 0.436 0.436 0.872 0.654 1.309 1.091 0.218 0.218 0.436 0.218 0.436 0.436 0.218 0.218 0.436 0.436 0.872 0.654 1.745 0.872 3.053 2.181 4.58 3.49 0.654 0.654 1.309 1.309 2.181 1.744 0.872 0.654 1.527 1.309 2.617 1.527 0 0 0.218 0 0.218 0.218 0.436 0.436 1.09 0.654 1.527 0.873 0.872 0.436 1.963 0.872 2.835 1.308 0.218 0.218 0.654 0.218 0.872 0.436 0.654 0.218 1.309 0.436 1.963 0.655 0.654 0.218 1.09 0.436 1.745 0.436h0.218c0.436 0.218 0.654 0.218 1.09 0 0.218 0 0.436 0 0.437 0.218 0 0.218 0.218 0.218 0.436 0.218 0.218 0 0.436 0 0.872 0 0.218-0.218 0.218-0.436 0.436-0.872 0.218 0.218 0.436 0.218 0.437 0.218 0.218 0.436 0.654 0.436 1.09 0.436h0.218c0.436 0 0.654 0 0.872-0.218 0-0.218 0.436-0.218 0.655-0.218 0.654 0.218 1.309 0.218 1.963 0.436 0.436 0.218 1.09 0.218 1.308-0.218 0.218-0.218 0.436-0.436 0.872-0.218 0.436 0.218 0.654 0.218 1.091 0 0.218 0 0.436 0 0.436 0 0.654 0.218 1.09 0.218 1.745 0.436 0.872 0.218 0.872 0.218 1.526-0.436 0.218-0.218 0.654-0.218 0.873 0 0.218 0.436 0.218 0.654 0.218 1.09 0.218 0 0.218 0 0.436-0.218 0-0.436 0.218-0.436 0.654-0.654 0.218 0.218 0.218 0.218 0.437 0.218 0.436 0.436 0.654 0.436 0.872-0.218 0-0.218 0-0.436 0.218-0.436 0.218 0 0.436 0.218 0.436 0.218 0.218 0.436 0.654 0.654 0.873 1.09 0.436 0.436 1.09 0.436 1.308 0 0.218-0.218 0.436-0.218 0.654-0.218 0-0.218 0-0.436 0-0.654 0.654 0.436 0.436 0.436 0.218 0.436zM34.928 55.687c0.654 0.218 1.09 0.218 1.309-0.218-0.436 0.218-0.872-0.218-1.309 0.218z" fill="#000000" fill-rule="nonzero" stroke="none" stroke-width="1" stroke-linecap="butt" stroke-linejoin="miter" stroke-miterlimit="10" stroke-dasharray="" stroke-dashoffset="0" font-family="none" font-weight="none" font-size="none" text-anchor="none" style="mix-blend-mode: normal" data-fill-palette-color="tertiary"></path></g><g transform="matrix(1,0,0,1,39.325,83.19384359400999)"><svg viewBox="0 0 46.35 58.61231281198003" height="58.61231281198003" width="46.35"><g><svg viewBox="0 0 46.35 58.61231281198003" height="58.61231281198003" width="46.35"><g><svg viewBox="0 0 46.35 58.61231281198003" height="58.61231281198003" width="46.35"><g id="textblocktransform"><svg viewBox="0 0 46.35 58.61231281198003" height="58.61231281198003" width="46.35" id="textblock"><g><svg viewBox="0 0 46.35 58.61231281198003" height="58.61231281198003" width="46.35"><g transform="matrix(1,0,0,1,0,0)"><svg width="46.35" viewBox="-0.75 -35.35 31.05 39" height="58.61231281198003" data-palette-color="#556970"><path d="M14.05 0.65L14.05 0.65Q10.5 0.65 7.83-0.95 5.15-2.55 3.7-5.5 2.25-8.45 2.25-12.5L2.25-12.5Q2.25-16.35 3.5-19.9 4.75-23.45 7.1-26.25 9.45-29.05 12.75-30.7 16.05-32.35 20.2-32.35L20.2-32.35Q23.3-32.35 25.3-31.4 27.3-30.45 27.3-28.6L27.3-28.6Q27.3-27.7 26.83-26.83 26.35-25.95 25.6-25.35 24.85-24.75 24.05-24.75L24.05-24.75Q23.55-24.75 23.25-25L23.25-25Q21.9-25.9 20.6-26.33 19.3-26.75 17.6-26.75L17.6-26.75Q14.05-26.75 11.6-25.13 9.15-23.5 7.88-20.85 6.6-18.2 6.6-15.1L6.6-15.1Q6.6-12.1 7.75-9.8 8.9-7.5 10.95-6.2 13-4.9 15.75-4.9L15.75-4.9Q17.95-4.9 20.03-5.78 22.1-6.65 23.7-8.2L23.7-8.2Q24.4-8.85 25.1-8.85L25.1-8.85Q25.7-8.85 25.95-8.35 26.2-7.85 26.2-7.35L26.2-7.35Q26.2-6.5 25.7-5.43 25.2-4.35 24.15-3.3L24.15-3.3Q22.3-1.45 19.6-0.4 16.9 0.65 14.05 0.65Z" opacity="1" transform="matrix(1,0,0,1,0,0)" fill="#000000" class="wordmark-text-0" data-fill-palette-color="primary" id="text-0"></path></svg></g></svg></g></svg></g></svg></g><g></g></svg></g></svg></g></svg></g><defs></defs></svg><rect width="125" height="225" fill="none" stroke="none" visibility="hidden"></rect></g></svg></g></svg>